<?xml version="1.0" encoding="utf-8" standalone="no"?>
<!DOCTYPE svg PUBLIC "-//W3C//DTD SVG 1.1//EN"
  "http://www.w3.org/Graphics/SVG/1.1/DTD/svg11.dtd">
<svg xmlns:xlink="http://www.w3.org/1999/xlink" width="183.6pt" height="99.36pt" viewBox="0 0 183.6 99.36" xmlns="http://www.w3.org/2000/svg" version="1.1">
 <metadata>
  <rdf:RDF xmlns:dc="http://purl.org/dc/elements/1.1/" xmlns:cc="http://creativecommons.org/ns#" xmlns:rdf="http://www.w3.org/1999/02/22-rdf-syntax-ns#">
   <cc:Work>
    <dc:type rdf:resource="http://purl.org/dc/dcmitype/StillImage"/>
    <dc:date>2026-09-23T01:50:23.177889</dc:date>
    <dc:format>image/svg+xml</dc:format>
    <dc:creator>
     <cc:Agent>
      <dc:title>Matplotlib v3.11.2, https://matplotlib.org/</dc:title>
     </cc:Agent>
    </dc:creator>
   </cc:Work>
  </rdf:RDF>
 </metadata>
 <defs>
  <style type="text/css">*{stroke-linejoin: round; stroke-linecap: butt}</style>
 </defs>
 <g id="figure_1">
  <g id="patch_1">
   <path d="M 0 99.36 
L 183.6 99.36 
L 183.6 0 
L 0 0 
L 0 99.36 
z
" style="fill: none"/>
  </g>
  <g id="axes_1">
   <g id="patch_2">
    <path d="M 32.13 77.004 
L 179.01 77.004 
L 179.01 3.9744 
L 32.13 3.9744 
L 32.13 77.004 
z
" style="fill: none"/>
   </g>
   <g id="matplotlib.axis_1">
    <g id="xtick_1">
     <g id="line2d_1">
      <defs>
       <path id="m267906b12d" d="M 0 0 
L 0 2.4 
" style="stroke: #000000; stroke-width: 0.6"/>
      </defs>
      <g>
       <use xlink:href="#m267906b12d" x="32.13" y="77.004" style="stroke: #000000; stroke-width: 0.6"/>
      </g>
     </g>
    </g>
    <g id="xtick_2">
     <g id="line2d_2">
      <g>
       <use xlink:href="#m267906b12d" x="81.09" y="77.004" style="stroke: #000000; stroke-width: 0.6"/>
      </g>
     </g>
    </g>
    <g id="xtick_3">
     <g id="line2d_3">
      <g>
       <use xlink:href="#m267906b12d" x="130.05" y="77.004" style="stroke: #000000; stroke-width: 0.6"/>
      </g>
     </g>
    </g>
    <g id="xtick_4">
     <g id="line2d_4">
      <g>
       <use xlink:href="#m267906b12d" x="179.01" y="77.004" style="stroke: #000000; stroke-width: 0.6"/>
      </g>
     </g>
    </g>
   </g>
   <g id="matplotlib.axis_2">
    <g id="ytick_1">
     <g id="line2d_5">
      <defs>
       <path id="m6d473826fa" d="M 0 0 
L -2.4 0 
" style="stroke: #000000; stroke-width: 0.6"/>
      </defs>
      <g>
       <use xlink:href="#m6d473826fa" x="32.13" y="72.461694" style="stroke: #000000; stroke-width: 0.6"/>
      </g>
     </g>
    </g>
    <g id="ytick_2">
     <g id="line2d_6">
      <g>
       <use xlink:href="#m6d473826fa" x="32.13" y="49.632596" style="stroke: #000000; stroke-width: 0.6"/>
      </g>
     </g>
    </g>
    <g id="ytick_3">
     <g id="line2d_7">
      <g>
       <use xlink:href="#m6d473826fa" x="32.13" y="26.803498" style="stroke: #000000; stroke-width: 0.6"/>
      </g>
     </g>
    </g>
    <g id="ytick_4">
     <g id="line2d_8">
      <g>
       <use xlink:href="#m6d473826fa" x="32.13" y="3.9744" style="stroke: #000000; stroke-width: 0.6"/>
      </g>
     </g>
    </g>
   </g>
   <g id="line2d_9">
    <path d="M 32.13 30.23962 
L 179.01 30.23962 
" clip-path="url(#p6f579b9a85)" style="fill: none; stroke-dasharray: 1.8,1.2; stroke-dashoffset: 0; stroke: #666666; stroke-width: 0.6"/>
   </g>
   <g id="line2d_10">
    <path d="M 56.61 77.004 
L 56.61 3.9744 
" clip-path="url(#p6f579b9a85)" style="fill: none; stroke-dasharray: 1.05,1.05; stroke-dashoffset: 0; stroke: #666666; stroke-width: 0.7"/>
   </g>
   <g id="patch_3">
    <path d="M 32.13 77.004 
L 32.13 3.9744 
" style="fill: none; stroke: #000000; stroke-width: 0.6; stroke-linejoin: miter; stroke-linecap: square"/>
   </g>
   <g id="patch_4">
    <path d="M 32.13 77.004 
L 179.01 77.004 
" style="fill: none; stroke: #000000; stroke-width: 0.6; stroke-linejoin: miter; stroke-linecap: square"/>
   </g>
   <g id="line2d_11">
    <path d="M 32.130245 73.175089 
L 32.242054 42.922847 
L 32.473497 37.659633 
L 32.83217 34.333272 
L 33.294436 32.039767 
L 33.856633 30.334702 
L 34.523343 29.003138 
L 35.305397 27.931562 
L 36.218838 27.055557 
L 37.301478 26.327463 
L 38.6058 25.723018 
L 40.208251 25.232099 
L 42.10031 24.8733 
L 44.770216 24.610369 
L 48.011542 24.511659 
L 53.01287 24.606579 
L 56.682736 24.858206 
L 58.635768 27.268319 
L 60.159781 29.501419 
L 61.343191 31.63735 
L 62.268804 33.776551 
L 63.003089 36.051725 
L 63.582455 38.594484 
L 64.054299 41.730656 
L 64.448473 45.982176 
L 64.827377 52.761641 
L 65.400305 63.071094 
L 65.778326 65.347974 
L 66.386224 67.584384 
L 67.182138 69.659178 
L 68.175619 71.6227 
L 69.417376 73.5764 
L 70.470109 74.982393 
L 70.470109 74.982393 
" clip-path="url(#p6f579b9a85)" style="fill: none; stroke: #000000; stroke-width: 1.1; stroke-linecap: square"/>
   </g>
   <g id="line2d_12">
    <path d="M 32.133488 73.762053 
L 32.251304 57.375738 
L 32.316054 56.73383 
L 32.36572 56.949861 
L 32.613172 60.274635 
L 32.948428 62.815716 
L 33.386109 64.483648 
L 33.909565 65.63082 
L 34.510758 66.426235 
L 35.210809 66.985782 
L 36.047114 67.365977 
L 37.095324 67.590026 
L 38.470495 67.644972 
L 40.370221 67.484346 
L 43.21384 67.003509 
L 48.404603 65.873713 
L 56.61 64.019709 
L 56.610371 64.09102 
L 56.633851 64.982004 
L 56.715122 64.894537 
L 58.635768 62.529348 
L 60.159781 60.309591 
L 61.343191 58.197399 
L 62.308287 56.000602 
L 63.075426 53.667969 
L 63.688314 51.074485 
L 64.230812 47.782414 
L 65.635416 38.353584 
L 66.212864 36.654601 
L 66.880314 35.362825 
L 67.671764 34.314231 
L 68.594681 33.464815 
L 69.688043 32.767197 
L 71.004083 32.199094 
L 72.613669 31.753713 
L 74.640614 31.432457 
L 77.148765 31.257143 
L 80.648964 31.245672 
L 85.607927 31.467741 
L 93.741047 32.081191 
L 112.491862 33.779473 
L 179.01 40.000488 
L 179.01 40.000488 
" clip-path="url(#p6f579b9a85)" style="fill: none; stroke: #d55e00; stroke-width: 1.1; stroke-linecap: square"/>
   </g>
   <g id="text_1">
    <text style="font-size: 7px; font-family: 'Liberation Sans', 'Arial', 'Helvetica', 'DejaVu Sans', sans-serif; text-anchor: end" x="174.6036" y="16.373551" transform="rotate(-0 174.6036 16.373551)">Sobrevive</text>
   </g>
  </g>
 </g>
 <defs>
  <clipPath id="p6f579b9a85">
   <rect x="32.13" y="3.9744" width="146.88" height="73.0296"/>
  </clipPath>
 </defs>
</svg>
